<svg xmlns="http://www.w3.org/2000/svg" viewBox="0 0 245.47 245.47"><defs><style>.cls-1{fill:#fff;}.cls-2{fill:#00a4ff;}.cls-3{fill:#002bff;}.cls-4{fill:#ffa91f;}.cls-5{fill:#ff002b;}</style></defs><g id="Layer_2" data-name="Layer 2"><g id="Layer_1-2" data-name="Layer 1"><circle class="cls-1" cx="122.73" cy="122.73" r="122.73"/><path class="cls-2" d="M210.73,79.7S179.33,86,173,79.7c-4.93-4.91,0-27.79,0-27.79h37.74Z"/><path class="cls-3" d="M60,168.41C39.31,147.83,60,52,60,52H34.73V193.56h85V168.41S70.54,178.94,60,168.41Z"/><path class="cls-3" d="M130.37,77.11c20.66,20.59,0,116.45,0,116.45H155.6V52H73.25V77.11S120.27,67.06,130.37,77.11Z"/><path class="cls-4" d="M210.61,132.69s-30.77,5.61-37.74,0c-5.42-4.37-4.93-22.88,0-27.79,6.34-6.31,37.74,0,37.74,0Z"/><path class="cls-5" d="M210.61,193.56H172.87s-4.93-22.88,0-27.79c6.34-6.32,37.74,0,37.74,0Z"/></g></g></svg>