<svg xmlns="http://www.w3.org/2000/svg" viewBox="0 0 176 141.64"><defs><style>.cls-1{fill:#fff;}</style></defs><g id="Layer_2" data-name="Layer 2"><g id="Layer_1-2" data-name="Layer 1"><path class="cls-1" d="M176,27.79s-31.4,6.31-37.74,0c-4.94-4.91,0-27.79,0-27.79H176Z"/><path class="cls-1" d="M25.24,116.5C4.57,95.92,25.24.06,25.24.06H0V141.64H85V116.5S35.8,127,25.24,116.5Z"/><path class="cls-1" d="M95.63,25.2c20.66,20.59,0,116.44,0,116.44h25.24V.06H38.52V25.2S85.54,15.14,95.63,25.2Z"/><path class="cls-1" d="M175.88,80.78s-30.77,5.61-37.74,0c-5.43-4.37-4.94-22.88,0-27.79,6.34-6.32,37.74,0,37.74,0Z"/><path class="cls-1" d="M175.88,141.64H138.14s-4.94-22.87,0-27.78c6.34-6.32,37.74,0,37.74,0Z"/></g></g></svg>